<?xml version="1.0" standalone="no"?>
<!DOCTYPE svg PUBLIC "-//W3C//DTD SVG 20010904//EN"
 "http://www.w3.org/TR/2001/REC-SVG-20010904/DTD/svg10.dtd">
<svg version="1.0" xmlns="http://www.w3.org/2000/svg"
 width="2000.000000pt" height="2000.000000pt" viewBox="0 0 2000.000000 2000.000000"
 preserveAspectRatio="xMidYMid meet">
<metadata>
Created by potrace 1.11, written by Peter Selinger 2001-2013
</metadata>
<g transform="translate(0.000000,2000.000000) scale(0.100000,-0.100000)"
fill="#000000" stroke="none">
<path d="M9129 19166 c-2 -2 -62 -7 -134 -11 -71 -3 -141 -8 -155 -10 -14 -2
-65 -7 -114 -10 -49 -4 -96 -8 -105 -10 -9 -1 -50 -6 -91 -10 -41 -4 -82 -8
-90 -10 -8 -1 -40 -6 -70 -10 -64 -8 -78 -10 -185 -25 -44 -7 -89 -14 -100
-16 -10 -2 -37 -6 -60 -10 -22 -3 -130 -23 -240 -45 -970 -193 -1895 -544
-2754 -1046 -163 -96 -179 -106 -411 -258 -181 -118 -319 -216 -480 -338 -93
-71 -297 -233 -310 -247 -3 -3 -21 -18 -40 -34 -300 -243 -772 -713 -1060
-1056 -30 -36 -57 -67 -60 -70 -27 -24 -288 -363 -411 -532 -74 -102 -240
-353 -326 -493 -460 -750 -796 -1529 -1022 -2370 -40 -149 -106 -425 -116
-488 -3 -17 -14 -75 -25 -127 -21 -101 -55 -302 -66 -385 -3 -27 -8 -58 -10
-69 -2 -10 -6 -44 -10 -75 -3 -31 -7 -63 -9 -71 -1 -8 -6 -49 -10 -90 -4 -41
-9 -82 -10 -91 -2 -8 -6 -55 -10 -105 -4 -49 -8 -100 -10 -114 -27 -187 -27
-1181 0 -1395 2 -16 6 -66 10 -110 3 -44 8 -96 10 -115 28 -247 50 -414 70
-520 18 -103 38 -219 40 -238 2 -13 8 -45 14 -70 6 -26 22 -99 35 -162 86
-391 176 -701 339 -1166 153 -433 464 -1084 713 -1492 35 -57 64 -106 64 -109
0 -15 332 -500 449 -657 115 -153 297 -383 321 -406 3 -3 32 -36 65 -75 277
-326 710 -753 1063 -1048 393 -328 969 -723 1367 -937 44 -24 125 -68 180 -97
368 -199 848 -405 1300 -559 115 -39 440 -140 484 -149 9 -2 86 -22 171 -44
342 -88 785 -172 1090 -206 30 -4 66 -8 80 -10 14 -2 54 -7 90 -10 36 -4 76
-8 90 -10 14 -2 68 -6 120 -10 52 -4 110 -8 130 -10 251 -23 1025 -23 1205 0
17 2 75 7 130 11 55 3 109 8 120 9 11 2 56 6 100 10 44 3 87 8 95 10 8 2 42 7
75 10 33 4 75 8 93 11 35 4 329 51 372 59 14 3 39 7 55 10 89 16 253 50 345
72 58 13 112 26 120 28 288 60 866 246 1250 401 292 119 786 355 965 461 28
16 82 47 120 68 248 136 755 473 995 662 140 110 402 325 430 353 3 3 46 41
95 85 107 94 195 179 353 336 1238 1232 2085 2804 2437 4521 14 65 27 139 31
165 3 27 8 50 9 53 6 10 60 358 70 455 3 28 8 66 10 85 2 19 7 62 10 95 3 33
8 76 10 95 4 35 14 145 20 236 23 323 23 946 0 1204 -2 19 -6 82 -10 140 -4
57 -8 107 -10 110 -1 3 -6 42 -9 87 -4 46 -9 91 -10 100 -2 10 -7 47 -11 83
-4 36 -9 72 -10 81 -2 9 -6 40 -10 70 -9 72 -74 456 -84 494 -4 17 -7 44 -6
62 0 17 -3 29 -7 27 -4 -3 -8 0 -8 7 0 6 8 9 18 7 13 -4 18 1 19 16 1 12 -1
15 -4 9 -3 -7 -11 -13 -19 -13 -14 0 -15 3 -18 38 -1 9 -5 22 -9 29 -10 16 2
43 22 43 15 1 15 2 0 13 -15 11 -15 14 -1 27 14 13 15 12 9 -2 -9 -26 18 -43
47 -30 20 9 25 8 30 -4 9 -24 7 -27 -8 -14 -11 8 -20 9 -33 1 -17 -10 -17 -10
0 -11 9 0 17 -5 17 -10 0 -7 -6 -7 -19 0 -27 14 -30 13 -26 -10 2 -11 0 -18
-4 -16 -4 3 -8 -1 -8 -9 0 -18 17 -20 17 -2 1 6 7 1 15 -13 8 -14 14 -20 15
-15 0 6 -7 21 -16 33 -13 19 -13 22 0 22 8 0 18 -9 21 -20 7 -23 22 -27 22 -5
0 8 -5 11 -10 8 -6 -4 -8 1 -4 11 4 10 7 20 7 22 0 3 4 3 9 0 15 -10 33 22 26
45 -5 15 -9 18 -15 9 -5 -9 -9 -9 -14 -1 -4 6 -2 11 4 11 6 0 8 5 4 11 -4 8
-9 7 -15 -2 -4 -7 -5 -17 -3 -21 8 -12 -11 -9 -24 4 -8 8 -12 9 -12 1 0 -6 5
-14 10 -16 6 -3 5 -4 -2 -3 -7 2 -13 9 -13 17 0 8 -4 19 -8 26 -4 6 -2 15 5
19 7 4 10 4 6 -1 -9 -9 9 -35 24 -35 6 0 6 5 -1 14 -9 11 -6 13 14 11 14 -2
27 1 31 6 5 9 -9 13 -33 10 -6 -1 -15 4 -19 10 -5 8 -3 9 6 4 8 -5 19 -1 28
11 13 16 14 17 9 2 -7 -19 8 -25 18 -8 4 6 10 8 15 5 4 -3 10 1 13 9 4 9 -1
13 -11 11 -9 -1 -11 0 -4 2 7 3 10 8 7 12 -2 5 7 7 20 5 28 -3 29 -1 14 29
-10 21 -10 21 5 3 9 -11 19 -17 22 -13 4 4 1 13 -6 21 -6 9 -10 21 -7 28 4 8
6 7 6 -4 1 -12 6 -15 17 -11 9 3 12 9 7 12 -4 3 -9 13 -11 21 -2 12 0 12 11
-1 10 -13 16 -14 28 -5 9 6 15 18 14 27 -2 11 4 15 24 13 45 -5 61 -10 74 -23
10 -11 8 -12 -10 -7 -12 4 -24 2 -28 -4 -3 -5 -11 -10 -17 -10 -7 0 -7 4 1 13
11 14 5 27 -12 27 -5 0 -7 -7 -4 -15 4 -8 2 -17 -4 -20 -5 -4 -6 -11 -3 -17 4
-7 2 -8 -4 -4 -7 4 -9 -1 -7 -15 2 -12 2 -19 -2 -16 -3 4 -14 2 -24 -4 -15 -7
-17 -6 -13 6 3 8 10 13 14 10 5 -3 11 -1 14 4 3 5 -1 11 -9 15 -17 6 -39 -29
-29 -46 5 -7 3 -8 -6 -3 -9 6 -11 4 -5 -5 6 -9 4 -11 -5 -5 -7 5 -11 4 -7 -1
3 -5 -1 -17 -8 -27 -8 -12 -15 -14 -20 -8 -3 6 -1 11 5 11 6 0 8 5 4 11 -4 8
-9 7 -15 -2 -4 -7 -5 -17 -3 -21 3 -4 0 -8 -6 -8 -7 0 -10 -7 -6 -15 5 -13 2
-14 -17 -5 -21 11 -21 11 -3 -4 14 -12 16 -16 5 -16 -12 0 -12 -2 0 -9 11 -7
11 -10 0 -15 -11 -5 -11 -7 -1 -12 6 -3 9 -11 6 -16 -4 -6 -3 -8 3 -5 6 4 9
17 8 31 -2 19 2 24 21 24 13 0 27 -4 30 -9 3 -5 9 -9 15 -9 5 0 1 8 -8 18 -11
12 -22 15 -29 10 -7 -5 -14 -3 -18 7 -3 9 -2 13 3 10 5 -3 13 0 17 6 5 9 11 6
22 -7 11 -15 13 -15 9 -2 -3 9 0 19 9 22 22 8 24 8 22 -5 -2 -6 3 -13 10 -14
7 -2 8 -1 2 2 -5 2 -8 9 -4 14 3 5 -2 12 -10 15 -9 3 -13 10 -10 16 4 5 10 5
18 -1 8 -7 17 -6 26 1 13 8 12 9 -2 5 -9 -3 -22 0 -28 8 -9 11 -7 14 15 12 14
-1 30 -9 35 -17 5 -8 10 -10 10 -4 0 5 -5 15 -12 22 -9 9 -8 16 5 29 13 13 19
15 29 5 7 -7 16 -12 22 -12 5 0 1 7 -10 16 -17 14 -17 15 -1 10 11 -3 16 -2
12 4 -6 9 9 15 29 11 5 -1 4 4 -2 12 -7 8 -8 17 -4 21 4 4 1 6 -7 4 -7 -1 -15
2 -18 9 -6 17 29 9 36 -8 5 -11 11 -9 31 9 16 15 18 21 7 16 -26 -10 -20 10 7
22 18 9 28 9 36 0 8 -8 9 -6 4 7 -4 13 -12 16 -28 11 -19 -6 -19 -5 -7 10 8 9
16 14 19 11 3 -3 14 9 24 26 11 17 22 29 25 25 3 -3 0 -12 -7 -21 -7 -8 -8
-15 -2 -15 16 0 23 31 11 46 -6 8 -7 14 -2 14 15 0 32 -22 27 -35 -3 -7 2 -15
12 -19 15 -6 15 -4 3 11 -12 15 -12 16 6 10 19 -7 19 -6 3 7 -17 12 -17 14 0
30 10 9 22 13 27 9 4 -5 5 -3 1 4 -4 7 -14 9 -23 6 -10 -4 -14 -2 -10 4 4 6
-4 18 -18 27 -15 10 -26 12 -30 6 -4 -6 -1 -9 5 -8 7 2 14 -5 15 -14 3 -16 -7
-23 -28 -19 -5 1 -5 -4 -1 -10 5 -8 3 -9 -6 -4 -9 6 -11 4 -5 -5 6 -9 4 -11
-5 -5 -9 6 -11 4 -5 -5 6 -9 4 -11 -5 -5 -9 6 -11 4 -5 -5 6 -9 4 -11 -5 -5
-9 6 -11 4 -5 -6 8 -12 6 -12 -8 0 -9 7 -14 17 -11 22 3 5 1 9 -4 9 -6 0 -13
-7 -16 -16 -8 -21 -8 -20 9 -22 8 -1 22 -3 30 -4 23 -2 18 -17 -5 -15 -11 1
-20 5 -20 10 0 5 -9 -1 -20 -14 -10 -13 -19 -18 -20 -11 0 6 -5 12 -11 12 -8
0 -8 -4 -2 -12 13 -17 13 -49 0 -41 -6 4 -7 1 -2 -7 5 -8 4 -11 -2 -7 -17 10
-9 61 12 83 11 11 25 29 31 40 9 15 14 17 26 7 15 -13 28 -8 28 9 0 5 -4 6
-10 3 -5 -3 -10 -1 -10 5 0 7 8 9 19 5 16 -5 19 -1 17 19 -2 15 1 23 7 19 5
-3 7 0 5 8 -3 8 -11 13 -17 11 -7 -1 -9 3 -6 9 5 8 10 8 18 0 15 -15 30 -14
21 2 -5 8 -2 8 9 -2 10 -8 17 -9 17 -3 0 6 -4 14 -10 17 -5 3 -10 11 -10 18 0
6 7 2 15 -9 13 -17 14 -17 15 -2 0 9 5 20 11 24 7 4 9 0 5 -13 -4 -14 -2 -20
9 -20 14 0 16 22 3 42 -4 6 -2 17 4 25 8 12 9 12 4 -2 -3 -10 -1 -20 3 -23 11
-6 23 23 16 35 -3 5 7 7 21 4 25 -5 26 -3 13 12 -8 10 -9 15 -3 11 7 -4 15 0
18 9 8 20 -2 36 -16 28 -7 -5 -8 -2 -3 5 5 9 10 10 18 2 15 -15 30 -14 21 2
-5 8 -3 8 9 -2 18 -14 16 -16 32 34 2 8 11 12 19 9 11 -4 14 0 11 15 -2 12 0
19 5 16 12 -7 41 5 35 16 -3 4 -13 6 -23 3 -14 -5 -14 -4 -2 4 8 6 19 8 25 4
20 -13 42 -11 42 3 0 11 -6 13 -20 9 -13 -4 -17 -2 -13 5 4 6 15 11 24 11 15
1 15 2 -2 15 -11 8 -15 15 -9 15 7 0 15 -4 18 -10 3 -5 11 -10 17 -10 6 0 5 7
-3 17 -10 11 -10 14 -1 9 15 -9 16 6 1 21 -8 8 -8 13 0 18 6 3 10 1 9 -6 -2
-6 3 -14 11 -17 8 -2 11 0 8 5 -4 6 4 9 19 7 20 -2 24 1 19 17 -4 11 -2 19 5
19 6 0 8 -4 5 -10 -3 -5 -2 -10 3 -10 17 0 22 13 9 28 -10 12 -8 17 7 26 11 6
29 20 40 31 22 21 73 29 83 12 4 -6 1 -7 -7 -2 -8 5 -11 4 -7 -2 8 -13 -24
-13 -40 0 -9 6 -13 6 -13 -2 0 -6 6 -11 13 -11 6 -1 1 -10 -12 -20 -13 -11
-19 -20 -14 -20 5 0 9 -9 10 -20 2 -23 -13 -28 -15 -5 -1 8 -3 22 -4 30 -1 9
-7 14 -15 10 -8 -3 -17 -5 -19 -5 -2 0 -4 -5 -4 -11 0 -5 4 -8 9 -5 5 3 15 -2
22 -11 12 -14 12 -16 0 -8 -10 6 -12 4 -6 -5 6 -9 4 -11 -5 -5 -9 6 -11 4 -5
-5 6 -9 4 -11 -5 -5 -9 6 -11 4 -5 -5 6 -9 4 -11 -5 -5 -9 6 -11 4 -5 -5 5 -9
4 -11 -4 -6 -6 4 -11 4 -10 -1 4 -21 -3 -31 -18 -28 -10 1 -17 8 -15 15 1 6
-2 9 -8 5 -6 -4 -4 -15 6 -30 9 -14 21 -22 27 -18 6 4 8 0 4 -10 -3 -9 -1 -19
6 -23 7 -4 9 -3 4 1 -4 5 0 17 9 27 16 17 18 17 30 0 13 -16 14 -16 7 3 -6 18
-5 18 10 6 15 -12 17 -12 11 3 -4 10 -12 15 -19 12 -13 -5 -35 12 -35 27 0 5
6 4 14 -2 15 -12 46 -5 46 11 0 6 -7 5 -15 -2 -9 -7 -18 -10 -21 -7 -4 3 8 14
25 25 17 10 29 21 26 24 -3 3 2 11 11 19 15 12 16 12 10 -7 -5 -16 -2 -24 11
-28 13 -5 15 -4 7 4 -9 8 -9 18 0 36 12 27 32 33 22 7 -5 -11 1 -9 16 7 18 20
20 26 9 31 -17 7 -25 42 -8 36 7 -3 11 -11 9 -18 -2 -8 0 -11 4 -7 4 4 13 3
21 -4 8 -6 13 -7 12 -2 -4 20 2 35 11 29 6 -4 7 1 4 12 -5 16 -4 16 10 -1 9
-11 16 -15 16 -10 0 6 -6 16 -12 23 -11 10 -8 16 11 32 28 23 43 25 35 4 -4
-8 -2 -15 4 -15 14 0 8 33 -6 38 -7 2 -9 8 -6 13 4 6 10 6 18 0 8 -7 17 -6 26
1 13 8 12 9 -2 5 -9 -3 -22 1 -29 9 -10 12 -6 13 27 9 27 -3 34 -2 24 5 -13 8
-12 12 4 27 16 15 18 15 13 2 -3 -9 -1 -22 5 -30 8 -11 9 -11 5 3 -7 20 17 43
35 32 7 -4 10 -4 6 1 -4 4 -3 17 3 29 10 20 10 20 -5 2 -9 -11 -18 -17 -22
-14 -3 4 4 16 15 27 12 12 16 21 9 21 -6 0 -8 3 -4 7 12 12 40 12 55 0 12 -10
13 -9 6 2 -6 10 -4 13 6 9 10 -4 15 1 16 16 0 11 -1 15 -4 9 -7 -18 -20 -16
-20 2 0 8 4 15 9 15 5 0 6 10 3 21 -7 22 -7 22 26 -1 19 -13 28 -17 22 -10
-19 21 -16 34 5 19 14 -11 15 -11 5 1 -21 24 -14 34 9 14 12 -10 18 -13 14 -6
-4 7 -2 12 6 12 10 0 9 3 -2 9 -8 6 -18 7 -23 4 -5 -3 -7 0 -5 8 6 15 10 15
43 4 11 -4 16 -3 10 2 -5 4 -11 15 -13 24 -3 18 26 22 47 5 11 -8 13 -8 8 0
-4 7 0 15 8 18 8 3 14 11 13 18 -2 7 2 12 8 11 6 -1 11 4 11 12 0 8 -4 12 -9
9 -10 -6 -11 10 -1 19 3 4 12 2 20 -4 9 -9 13 -8 13 0 0 6 -4 11 -9 11 -12 0
-6 37 9 55 8 10 7 16 -4 22 -14 8 -16 12 -16 34 0 5 -4 7 -10 4 -5 -3 -10 1
-10 10 0 9 4 14 8 11 5 -3 9 1 9 9 0 8 -5 13 -11 12 -6 -1 -10 6 -10 15 2 16
-1 16 -33 3 -47 -20 -50 -19 -22 5 13 10 19 19 13 20 -5 0 -15 -5 -21 -11 -9
-9 -12 -7 -10 10 1 12 6 20 12 17 7 -2 12 2 12 9 0 23 -21 12 -40 -20 l-17
-30 6 30 c4 17 9 35 13 40 10 17 10 35 0 29 -5 -3 -7 -9 -4 -14 7 -12 -26 -29
-44 -22 -9 3 -11 0 -6 -9 5 -8 4 -10 0 -6 -16 14 -13 33 5 33 10 0 16 -5 13
-10 -3 -5 -1 -6 6 -2 6 4 8 12 5 18 -4 6 0 14 7 19 11 7 11 9 1 9 -7 0 -15 -7
-18 -15 -5 -11 -11 -12 -25 -4 -14 7 -19 6 -19 -3 0 -8 -5 -6 -11 5 -6 10 -15
14 -22 10 -7 -4 -6 1 2 10 12 16 16 16 31 2 9 -8 21 -15 26 -15 5 0 2 5 -6 10
-12 8 -12 10 5 10 18 0 18 1 -2 15 -14 10 -20 22 -17 33 5 14 4 15 -5 2 -6 -9
-7 -18 -1 -24 16 -16 11 -30 -5 -16 -12 10 -18 10 -31 0 -12 -11 -15 -11 -12
1 2 8 -3 13 -11 11 -12 -3 -12 -1 0 14 12 16 12 17 -4 11 -11 -4 -16 -3 -12 3
3 6 1 10 -4 10 -6 0 -11 5 -11 10 0 6 11 3 25 -6 14 -9 22 -21 18 -27 -4 -6
-1 -7 7 -2 9 6 11 4 5 -5 -5 -9 -4 -11 4 -6 8 6 9 12 2 20 -7 9 -7 17 2 26 8
9 9 11 0 6 -6 -3 -15 -1 -18 5 -4 5 -13 8 -21 5 -7 -3 -16 -1 -19 4 -4 6 0 10
7 10 7 0 -2 9 -21 21 -25 15 -31 23 -22 32 6 6 11 15 11 21 0 5 -6 1 -14 -10
-11 -14 -12 -23 -3 -34 6 -8 7 -12 3 -8 -5 4 -16 2 -25 -5 -14 -10 -14 -10 -3
4 10 13 9 19 -4 30 -10 8 -19 13 -21 12 -10 -8 -22 -1 -28 17 -4 11 -10 18
-14 16 -4 -3 -7 6 -7 20 0 13 4 24 9 24 5 0 7 -6 4 -13 -3 -7 4 -24 14 -38 10
-13 19 -20 19 -15 0 5 7 3 15 -4 10 -9 15 -9 15 -1 0 6 -4 11 -10 11 -5 0 -7
8 -3 18 5 14 3 14 -11 -3 -12 -13 -16 -15 -13 -5 3 9 -1 24 -9 34 -7 11 -11
22 -9 26 2 4 -2 7 -10 7 -8 0 -16 -4 -16 -9 -1 -4 -3 -12 -4 -18 -1 -5 -3 -16
-4 -22 -1 -8 -6 -6 -12 5 -6 9 -15 14 -21 11 -7 -4 -8 -2 -4 5 4 6 11 9 16 6
7 -4 16 14 25 53 2 6 -1 10 -6 6 -5 -3 -7 -9 -4 -14 7 -12 -26 -29 -44 -22 -9
3 -11 0 -6 -9 5 -8 4 -10 0 -6 -16 14 -13 33 5 33 10 0 16 -5 13 -10 -3 -5 -1
-6 6 -2 6 4 8 12 5 18 -4 6 0 14 7 19 11 7 11 9 1 9 -7 0 -15 -7 -18 -15 -5
-11 -11 -12 -25 -4 -14 7 -19 6 -19 -3 0 -8 -5 -6 -11 5 -6 10 -15 14 -22 10
-7 -4 -6 1 2 10 12 16 16 16 31 2 9 -8 21 -15 26 -15 5 0 2 5 -6 10 -12 8 -12
10 5 10 18 0 18 1 -2 15 -14 10 -20 22 -17 33 5 14 4 15 -5 2 -6 -9 -7 -18 -1
-24 16 -16 11 -30 -5 -16 -12 10 -18 10 -31 0 -12 -11 -15 -11 -12 1 2 8 -3
13 -11 11 -12 -3 -12 -1 0 14 12 16 12 17 -4 11 -11 -4 -16 -3 -12 3 3 6 1 10
-4 10 -6 0 -11 5 -11 10 0 6 11 3 25 -6 14 -9 22 -21 18 -27 -4 -6 -1 -7 7 -2
9 6 11 4 5 -5 -5 -9 -4 -11 4 -6 8 6 9 12 2 20 -7 8 -7 17 -1 24 7 8 7 9 -1 3
-6 -5 -18 -7 -27 -3 -13 5 -13 7 4 14 17 7 16 8 -3 4 -13 -2 -26 0 -29 5 -3 5
1 9 8 9 7 0 -2 9 -21 21 -25 15 -31 23 -22 32 6 6 11 15 11 19 0 4 -8 0 -18
-10 -12 -11 -14 -20 -8 -24 7 -5 7 -8 -2 -8 -9 0 -8 -7 4 -25 15 -23 15 -25 0
-19 -9 3 -14 10 -11 14 3 5 -3 13 -12 19 -11 6 -13 11 -5 11 7 0 10 5 7 10 -4
6 -11 7 -17 4 -6 -4 -8 -2 -4 4 3 6 -3 13 -14 17 -11 3 -20 11 -20 16 0 18 -2
24 -12 37 -9 10 -14 10 -27 0 -14 -11 -14 -11 -4 3 7 9 9 20 5 25 -4 4 0 3 8
-3 11 -9 20 -8 34 3 11 8 15 14 10 14 -6 0 -15 -5 -21 -11 -9 -9 -17 -3 -32
22 -12 19 -21 28 -21 21 0 -7 -4 -11 -10 -7 -5 3 -7 12 -4 19 3 8 0 17 -5 21
-6 3 -8 12 -4 18 5 9 3 9 -8 0 -11 -9 -19 -9 -26 -2 -8 8 -13 7 -18 -2 -6 -8
-4 -10 5 -4 9 6 11 4 5 -5 -5 -8 -4 -11 2 -7 6 4 18 -4 27 -18 9 -14 12 -25 6
-25 -5 0 -10 5 -10 11 0 5 -4 7 -10 4 -6 -4 -7 1 -3 12 6 16 5 16 -11 4 -15
-12 -17 -12 -14 0 2 8 -3 13 -11 11 -12 -3 -12 0 -1 12 10 13 10 19 0 31 -14
16 0 21 16 5 6 -6 15 -5 24 1 13 9 12 10 -2 5 -11 -3 -23 3 -33 17 -14 20 -15
20 -15 2 0 -17 -2 -17 -10 -5 -5 8 -10 11 -10 6 0 -5 7 -17 15 -26 14 -15 14
-19 -2 -31 -9 -8 -14 -9 -10 -2 4 7 0 16 -10 22 -11 6 -13 11 -5 11 9 0 10 5
3 19 -8 14 -7 20 4 25 8 3 15 11 15 18 0 10 -2 10 -9 -1 -5 -7 -13 -11 -19 -7
-6 3 -14 1 -18 -5 -4 -7 -3 -9 2 -6 5 3 10 -3 10 -13 0 -18 -19 -21 -33 -5 -4
4 -2 5 6 0 9 -5 12 -3 9 6 -7 18 10 51 22 44 5 -3 11 -1 14 4 7 10 -9 9 -37
-4 -9 -4 -23 -3 -30 3 -6 6 -16 12 -22 14 -5 1 -9 6 -7 11 2 7 -14 11 -31 8
-5 -1 -5 8 -2 20 5 16 4 19 -5 14 -9 -5 -11 -4 -6 3 4 7 1 13 -6 13 -7 1 -20
2 -28 3 -8 0 -15 8 -15 16 0 8 -4 21 -9 28 -4 7 -5 16 -2 19 3 4 6 1 6 -6 0
-7 4 -10 9 -6 6 3 8 -6 5 -20 -2 -14 0 -25 6 -25 6 0 8 5 4 11 -3 6 5 4 18 -5
23 -15 26 -15 39 1 8 9 9 14 2 10 -6 -4 -15 -2 -18 4 -4 5 -13 8 -21 5 -7 -3
-16 -1 -19 4 -4 6 0 10 7 10 7 0 -2 9 -21 21 -25 15 -31 23 -22 32 6 6 11 15
11 19 0 4 -8 0 -18 -9 -12 -12 -14 -21 -8 -25 7 -5 7 -8 -2 -8 -9 0 -8 -7 4
-25 15 -23 15 -25 0 -19 -9 3 -14 10 -11 14 3 5 -3 13 -12 19 -11 6 -13 11 -5
11 7 0 10 5 7 10 -4 6 -11 7 -17 4 -6 -4 -8 -2 -4 4 3 6 -3 13 -14 17 -11 3
-20 11 -20 16 0 18 -2 24 -12 37 -9 10 -14 10 -27 0 -12 -9 -11 -7 2 8 16 19
16 22 2 28 -13 5 -14 10 -5 27 11 19 10 20 -10 9 -30 -16 -62 -21 -54 -9 3 6
9 8 12 5 7 -8 32 14 32 28 0 6 -4 5 -9 -3 -6 -9 -15 -11 -27 -6 -21 9 -30 12
-43 14 -5 0 -13 10 -16 21 -4 11 -11 17 -17 14 -6 -4 -8 -2 -4 4 3 6 2 13 -4
17 -5 3 -10 0 -10 -7 0 -8 -4 -7 -11 4 -7 13 -5 26 6 48 10 20 12 29 4 28 -6
-2 -14 3 -17 11 -3 9 0 11 9 6 11 -6 12 -5 2 5 -18 20 -29 3 -14 -21 7 -12 10
-23 7 -26 -2 -3 -10 4 -17 15 -7 11 -19 18 -26 15 -18 -7 -16 7 4 22 13 9 13
14 3 20 -9 5 -11 4 -6 -3 7 -12 1 -14 -29 -14 -29 0 -34 2 -40 22 -4 11 -11
18 -16 14 -5 -3 -8 -2 -7 3 1 4 -3 19 -10 33 -12 22 -12 23 1 7 14 -16 15 -16
21 -1 4 10 2 22 -4 28 -8 8 -9 6 -5 -6 11 -29 -4 -20 -25 15 -11 17 -20 26
-20 19 0 -7 -4 -11 -10 -7 -5 3 -7 12 -4 19 3 8 1 17 -5 20 -6 4 -7 14 -4 24
4 13 2 13 -10 -3 -14 -18 -14 -22 0 -44 8 -13 10 -20 4 -17 -6 4 -11 2 -11 -4
0 -6 11 -8 25 -6 14 3 23 1 20 -5 -4 -5 -1 -9 6 -9 7 0 10 -3 6 -6 -3 -3 -12
-2 -19 2 -7 5 -20 9 -28 9 -8 0 -16 7 -16 15 -1 8 -2 21 -3 28 0 7 -6 10 -13
6 -7 -5 -8 -3 -3 6 5 9 1 11 -16 6 -14 -3 -11 0 9 9 17 8 32 21 31 28 0 9 -2
9 -6 0 -7 -18 -32 -16 -39 2 -5 11 -10 12 -26 4 -15 -8 -19 -8 -14 0 10 16
-42 61 -62 54 -9 -3 -14 -3 -11 1 9 9 50 17 46 8 -2 -4 6 -16 18 -27 19 -19
21 -19 38 -2 9 9 13 17 9 17 -4 0 -13 -5 -19 -11 -9 -9 -17 -3 -32 22 -12 19
-21 28 -21 21 0 -7 -4 -11 -9 -8 -5 3 -7 16 -5 29 4 19 3 20 -4 3 -7 -17 -9
-17 -14 -4 -4 9 -1 22 5 29 10 11 9 11 -4 1 -11 -8 -19 -8 -26 -1 -8 8 -13 7
-18 -2 -6 -8 -4 -10 5 -4 9 6 11 4 5 -5 -5 -8 -4 -11 2 -7 6 4 18 -4 27 -18 9
-14 12 -25 6 -25 -5 0 -10 5 -10 11 0 5 -4 7 -10 4 -6 -4 -7 1 -3 12 6 16 5
16 -11 4 -15 -12 -17 -12 -14 0 2 8 -3 13 -11 11 -12 -3 -12 0 -1 12 10 13 10
19 0 31 -14 16 0 21 16 5 6 -6 15 -5 24 1 13 9 12 10 -2 5 -11 -3 -23 3 -33
17 -14 20 -15 20 -15 2 0 -17 -2 -17 -10 -5 -5 8 -10 11 -10 6 0 -5 7 -17 15
-26 14 -15 14 -19 -2 -31 -9 -8 -14 -9 -10 -2 4 7 0 16 -10 22 -11 6 -13 11
-5 11 9 0 10 5 3 19 -8 14 -7 20 4 25 8 3 15 11 15 18 0 10 -2 10 -9 -1 -5 -7
-13 -11 -19 -7 -6 3 -14 1 -18 -5 -4 -7 -3 -9 2 -6 5 3 10 -3 10 -13 0 -18
-19 -21 -33 -5 -4 4 -2 5 6 0 9 -5 12 -3 9 6 -7 18 10 51 22 44 5 -3 11 -1 14
4 7 10 -20 9 -30 -2 -13 -13 -52 -7 -58 9 -3 8 -11 12 -16 9 -6 -4 -10 -3 -9
2 3 20 -2 34 -11 28 -6 -4 -9 -1 -8 7 2 7 -3 12 -9 10 -7 -1 -13 1 -14 5 0 5
-2 16 -4 26 -2 9 0 15 4 13 4 -3 13 0 21 5 13 9 13 10 0 6 -8 -2 -21 2 -28 10
-8 7 -18 11 -23 8 -5 -4 -9 -1 -9 4 0 6 5 11 10 11 6 0 10 5 10 11 0 5 -4 8
-9 5 -5 -4 -11 -1 -13 6 -3 7 -7 5 -11 -6 -4 -9 -3 -15 2 -12 5 3 8 -2 7 -12
0 -9 5 -16 12 -14 8 1 11 -2 6 -9 -5 -8 -3 -9 5 -4 10 6 11 3 2 -14 -13 -24
-23 -28 -15 -6 4 8 2 15 -3 15 -6 0 -15 12 -21 26 -7 15 -17 22 -24 18 -7 -4
-8 -3 -4 4 4 6 -6 19 -21 29 -33 21 -44 34 -37 45 10 16 -9 8 -22 -9 -13 -17
-14 -17 -8 0 5 14 2 16 -12 11 -11 -4 -16 -4 -13 0 4 4 16 8 27 11 23 4 62 24
49 25 -5 0 -17 -4 -27 -10 -15 -8 -20 -6 -25 10 -4 11 -10 18 -15 15 -5 -3
-11 1 -14 7 -3 7 -3 0 -1 -15 3 -19 0 -27 -8 -24 -7 3 -11 11 -9 18 3 12 1 12
-10 1 -11 -11 -10 -16 7 -28 19 -14 19 -15 -8 -10 -25 4 -27 2 -22 -17 5 -19
5 -20 -5 -4 -13 20 -4 40 13 31 7 -4 8 -3 4 1 -9 11 -37 16 -36 7 3 -19 -3
-29 -16 -29 -18 0 -20 13 -2 21 6 2 2 4 -10 2 -12 -1 -26 -6 -30 -11 -5 -4 -3
-5 3 -2 6 3 17 -5 24 -18 11 -21 16 -23 29 -13 10 8 9 4 -3 -10 -11 -12 -24
-22 -30 -22 -6 0 -4 5 4 10 13 8 12 10 -3 10 -10 0 -16 4 -12 9 3 5 1 13 -5
16 -6 4 -9 1 -8 -7 2 -7 -2 -12 -9 -11 -7 2 -10 -4 -6 -13 5 -13 8 -13 15 -2
6 9 7 5 3 -11 -5 -17 -4 -22 5 -16 9 5 11 4 6 -4 -6 -9 -11 -9 -22 0 -22 18
-28 4 -7 -17 17 -16 17 -17 1 -11 -21 8 -43 -24 -27 -40 6 -6 5 -10 -5 -10 -8
0 -12 5 -9 10 3 5 0 7 -8 5 -8 -3 -13 -11 -11 -17 1 -6 -4 -10 -10 -9 -7 2
-12 -3 -10 -10 1 -8 -2 -11 -7 -8 -12 8 -42 -4 -36 -13 2 -4 -2 -8 -10 -8 -8
0 -15 5 -15 10 0 6 -3 7 -7 3 -4 -4 3 -16 17 -28 14 -11 20 -17 13 -14 -6 4
-16 -1 -21 -10 -6 -11 -11 -13 -16 -5 -4 6 -2 11 3 11 16 0 13 17 -3 23 -10 4
-12 -3 -10 -28 1 -22 -3 -35 -13 -39 -8 -3 -11 -11 -8 -16 4 -6 1 -9 -7 -8 -8
2 -12 -4 -10 -17 4 -23 0 -20 -17 12 -10 20 -9 22 5 16 13 -5 15 -3 9 7 -6 9
-4 11 5 5 9 -6 11 -4 5 5 -6 9 -4 11 5 5 9 -6 11 -4 5 5 -6 9 -4 11 5 5 9 -6
11 -4 6 4 -9 14 -26 2 -98 -74 -26 -27 -48 -45 -48 -38 0 12 -25 12 -37 -1 -4
-4 -3 -7 2 -6 22 5 35 -1 46 -21 8 -15 8 -19 0 -15 -11 7 -15 -4 -12 -34 1
-11 -1 -10 -10 3 -8 13 -8 22 1 32 14 16 -1 27 -20 14 -13 -7 -13 -9 0 -9 9 0
5 -5 -9 -13 -13 -6 -25 -20 -27 -30 -1 -9 1 -15 5 -12 4 2 8 -2 8 -10 0 -8 -5
-13 -11 -12 -6 1 -10 -3 -9 -10 2 -7 -3 -10 -10 -7 -7 2 -21 -3 -32 -12 -11
-8 -14 -12 -6 -8 10 5 12 3 6 -6 -6 -10 -11 -9 -22 5 -14 21 -18 8 -4 -14 11
-17 3 -43 -11 -35 -7 4 -6 9 1 14 9 5 8 10 -2 18 -12 10 -14 6 -11 -23 2 -30
-6 -43 -19 -32 -9 6 -37 -28 -33 -39 3 -8 0 -13 -6 -11 -7 1 -12 -3 -13 -10 0
-6 -4 -15 -9 -20 -5 -5 -6 -3 -2 5 4 6 3 12 -3 12 -5 0 -55 63 -111 140 -159
220 -443 578 -545 686 -5 6 -44 49 -85 95 -76 86 -514 527 -605 609 -150 136
-428 369 -575 480 -47 36 -87 68 -90 71 -7 7 -351 253 -365 259 -5 3 -64 41
-130 84 -128 84 -417 259 -525 318 -152 82 -223 120 -355 186 -684 343 -1496
620 -2230 761 -279 54 -430 79 -615 101 -52 6 -108 13 -125 15 -16 2 -59 7
-95 10 -36 3 -83 8 -105 10 -22 3 -76 8 -120 11 -44 3 -102 8 -130 10 -60 6
-961 15 -966 10z m8521 -3166 c0 -5 -2 -10 -4 -10 -3 0 -8 5 -11 10 -3 6 -1
10 4 10 6 0 11 -4 11 -10z m80 -100 c0 -5 -2 -10 -4 -10 -3 0 -8 5 -11 10 -3
6 -1 10 4 10 6 0 11 -4 11 -10z m35 -49 c3 -5 2 -12 -3 -15 -5 -3 -9 1 -9 9 0
17 3 19 12 6z m-335 -65 c0 -3 -4 -8 -10 -11 -5 -3 -10 -1 -10 4 0 6 5 11 10
11 6 0 10 -2 10 -4z m405 -6 c3 -6 -1 -7 -9 -4 -18 7 -21 14 -7 14 6 0 13 -4
16 -10z m-441 -18 c3 -5 -1 -9 -9 -9 -8 0 -15 4 -15 9 0 4 4 8 9 8 6 0 12 -4
15 -8z m-159 -112 c-3 -5 -1 -10 5 -10 7 0 -4 -16 -24 -36 -19 -19 -41 -32
-47 -29 -7 5 3 21 27 46 38 38 51 49 39 29z m-104 -146 c5 -7 3 -11 -6 -11 -8
0 -12 4 -10 8 3 4 -3 10 -12 13 -15 6 -15 8 -3 16 10 6 16 5 19 -3 2 -7 8 -17
12 -23z m981 18 c-7 -2 -9 -9 -5 -15 3 -7 2 -8 -2 -4 -16 14 -14 36 3 29 10
-4 12 -7 4 -10z m73 -42 c3 -5 1 -10 -4 -10 -6 0 -11 5 -11 10 0 6 2 10 4 10
3 0 8 -4 11 -10z m63 -45 c-3 -3 -9 2 -12 12 -6 14 -5 15 5 6 7 -7 10 -15 7
-18z m-1178 5 c0 -5 -4 -10 -10 -10 -5 0 -10 5 -10 10 0 6 5 10 10 10 6 0 10
-4 10 -10z m1135 -40 c3 -5 1 -10 -4 -10 -6 0 -11 5 -11 10 0 6 2 10 4 10 3 0
8 -4 11 -10z m86 -54 c9 -19 9 -19 -4 -4 -8 10 -16 15 -19 12 -3 -2 -8 2 -11
10 -9 23 22 7 34 -18z m-1324 -11 c0 -8 -4 -12 -9 -9 -4 3 -8 9 -8 15 0 5 4 9
8 9 5 0 9 -7 9 -15z m-17 -29 c0 -3 -4 -8 -10 -11 -5 -3 -10 -1 -10 4 0 6 5
11 10 11 6 0 10 -2 10 -4z m1427 -42 c-3 -3 -12 -4 -19 -1 -8 3 -5 6 6 6 11 1
17 -2 13 -5z m57 -45 c-3 -5 -11 -9 -17 -9 -7 0 -6 4 3 10 10 6 11 10 3 10 -7
0 -13 5 -13 11 0 8 5 8 15 -1 8 -7 12 -16 9 -21z m103 -115 c-3 -3 -12 -4 -19
-1 -8 3 -5 6 6 6 11 1 17 -2 13 -5z m60 -21 c-4 -3 -2 -12 4 -20 9 -9 8 -13 0
-13 -6 0 -11 6 -11 13 0 8 -4 7 -10 -3 -5 -8 -10 -10 -10 -4 0 10 20 34 29 34
2 0 1 -3 -2 -7z m30 -85 c-3 -8 -6 -5 -6 6 -1 11 2 17 5 13 3 -3 4 -12 1 -19z
m188 -118 c3 -6 -1 -7 -9 -4 -18 7 -21 14 -7 14 6 0 13 -4 16 -10z m-50 -40
c3 -5 1 -10 -4 -10 -6 0 -11 5 -11 10 0 6 2 10 4 10 3 0 8 -4 11 -10z m283
-205 c-3 -3 -9 2 -12 12 -6 14 -5 15 5 6 7 -7 10 -15 7 -18z m26 -36 c-2 -4 2
-10 8 -12 9 -4 10 -6 1 -6 -6 -1 -14 3 -18 9 -3 5 -13 7 -23 4 -12 -4 -13 -3
-4 3 15 11 43 13 36 2z m0 -40 c-8 -14 -21 -11 -21 5 0 8 6 12 14 9 7 -3 10
-9 7 -14z m33 -41 c-3 -8 -6 -5 -6 6 -1 11 2 17 5 13 3 -3 4 -12 1 -19z m136
-81 c4 3 4 -5 2 -17 -2 -12 -7 -25 -11 -29 -3 -3 -5 1 -3 9 2 8 -2 26 -9 40
-12 22 -11 23 1 8 8 -10 17 -15 20 -11z m254 -293 c-3 -3 -12 -4 -19 -1 -8 3
-5 6 6 6 11 1 17 -2 13 -5z m63 -29 c10 6 4 -35 -6 -44 -4 -3 -4 2 -1 11 3 10
2 20 -3 23 -6 4 -10 12 -9 18 0 9 2 8 6 -1 2 -6 9 -10 13 -7z m-27 -8 c3 -8
-1 -14 -9 -14 -15 0 -18 9 -7 20 9 9 10 9 16 -6z m82 -27 c3 -6 -1 -7 -9 -4
-18 7 -21 14 -7 14 6 0 13 -4 16 -10z m203 -213 c13 -15 -1 -43 -16 -33 -6 3
-15 -2 -21 -11 -6 -10 -11 -13 -11 -6 0 6 5 15 10 18 6 3 10 11 10 16 0 6 -6
7 -12 3 -9 -5 -9 -2 1 9 16 20 25 21 39 4z m22 -57 c13 -9 13 -10 0 -10 -10
-1 -8 -5 7 -13 18 -10 20 -15 9 -29 -7 -10 -16 -18 -20 -18 -9 0 -3 24 9 33 6
5 4 7 -5 4 -8 -2 -14 -10 -12 -16 1 -7 -2 -10 -7 -6 -6 3 -8 -3 -6 -14 2 -14
-1 -18 -11 -14 -12 5 -19 -7 -15 -29 2 -12 -14 -9 -27 4 -9 9 -12 9 -12 0 0
-7 6 -12 13 -12 8 0 7 -4 -3 -10 -20 -13 -4 -13 21 0 14 8 19 7 19 -2 0 -10 2
-10 9 1 6 9 11 10 15 2 4 -6 2 -11 -4 -11 -7 0 -10 -6 -7 -14 3 -8 -1 -17 -9
-20 -8 -3 -14 0 -14 6 0 7 -5 6 -15 -2 -8 -7 -15 -9 -15 -5 0 4 -7 2 -15 -5
-13 -11 -13 -15 -3 -23 10 -6 9 -8 -4 -4 -17 6 -40 -15 -52 -47 -4 -13 -10
-15 -19 -8 -7 6 -19 7 -26 3 -10 -6 -10 -10 -2 -16 8 -4 9 -11 3 -18 -5 -7 -8
-19 -7 -28 2 -10 -4 -15 -19 -14 -24 3 -48 -13 -40 -26 3 -5 -1 -12 -10 -15
-8 -3 -13 -14 -11 -25 3 -13 0 -19 -8 -16 -7 2 -22 -5 -35 -17 -13 -11 -29
-21 -35 -21 -7 0 -14 -4 -15 -10 -2 -5 -8 -16 -14 -22 -6 -7 -7 -13 -2 -13 5
0 -3 -8 -16 -17 -14 -10 -29 -17 -33 -15 -4 1 -7 -3 -6 -10 2 -7 -1 -24 -5
-36 l-8 -24 -24 23 c-23 21 -30 17 -25 -14 1 -5 -13 1 -31 14 -45 31 -46 33
-19 24 18 -5 22 -4 16 5 -5 9 -4 11 4 6 6 -4 9 -12 6 -17 -3 -5 1 -6 10 -3 12
5 13 10 4 20 -8 9 -8 18 1 31 10 16 10 16 5 -3 -3 -13 1 -26 10 -34 13 -11 15
-9 13 11 -2 14 2 23 9 22 6 -1 13 4 16 11 4 9 -1 13 -11 11 -9 -1 -11 0 -4 2
7 3 10 8 7 12 -2 5 7 7 20 5 28 -3 29 -1 14 29 -10 21 -10 21 5 3 9 -11 19
-17 22 -13 4 4 1 13 -6 21 -6 9 -10 21 -7 28 4 8 6 7 6 -4 1 -12 6 -15 17 -11
9 3 12 9 7 12 -4 3 -9 13 -11 21 -2 12 0 12 11 -1 10 -13 16 -14 28 -5 9 6 15
19 13 29 -1 9 2 14 7 11 6 -3 16 0 24 6 11 10 15 10 15 1 0 -7 4 -10 10 -6 12
7 2 35 -12 32 -6 -1 -13 5 -15 13 -4 12 -3 12 5 2 11 -17 19 -15 55 10 15 11
25 24 22 28 -3 5 3 18 15 30 11 11 20 15 20 8 0 -15 15 0 15 15 1 7 -3 15 -8
18 -5 3 -2 9 7 12 9 4 15 3 15 -1 -3 -19 3 -20 21 -5 11 10 20 21 20 26 0 5
-6 5 -13 -1 -9 -8 -17 -8 -27 0 -13 8 -12 9 1 5 9 -3 21 -1 27 5 8 8 13 6 18
-6 5 -13 9 -15 15 -5 4 8 1 18 -9 27 -9 7 -11 11 -4 7 7 -4 20 -4 29 -1 12 5
13 9 3 21 -10 12 -10 15 0 15 10 0 10 3 1 14 -9 11 -9 16 1 22 7 4 10 4 6 -1
-9 -9 9 -35 24 -35 6 0 5 7 -2 15 -11 13 -10 14 6 8 17 -6 18 -5 4 13 -11 15
-11 16 0 7 19 -17 31 -16 24 2 -4 8 -1 15 7 15 7 0 9 3 6 7 -4 3 -2 12 4 20
14 16 -3 17 -19 1 -8 -8 -12 -9 -12 -1 0 10 14 20 30 22 3 0 12 -4 20 -9z m-2
-96 c-18 -17 -32 -21 -35 -9 -2 6 3 10 10 10 6 1 11 6 10 13 -2 6 4 9 13 5 13
-5 13 -8 2 -19z m-113 -24 c3 -6 -1 -7 -9 -4 -18 7 -21 14 -7 14 6 0 13 -4 16
-10z m-58 -15 c0 -8 -4 -12 -9 -9 -5 3 -6 10 -3 15 9 13 12 11 12 -6z m-60
-87 c-3 -8 -6 -5 -6 6 -1 11 2 17 5 13 3 -3 4 -12 1 -19z m-66 -45 c-12 -20
-14 -14 -5 12 4 9 9 14 11 11 3 -2 0 -13 -6 -23z m25 -19 c-11 -8 -25 -14 -30
-13 -6 0 -1 5 12 11 12 6 22 16 22 21 0 6 3 7 7 3 5 -4 -1 -14 -11 -22z m-61
-44 c3 -5 1 -10 -4 -10 -6 0 -11 5 -11 10 0 6 2 10 4 10 3 0 8 -4 11 -10z
m-35 -40 c0 -5 -4 -10 -10 -10 -5 0 -10 5 -10 10 0 6 5 10 10 10 6 0 10 -4 10
-10z m-85 -80 c3 -5 1 -10 -4 -10 -6 0 -11 5 -11 10 0 6 2 10 4 10 3 0 8 -4
11 -10z m-140 -108 c-3 -3 -11 0 -18 7 -9 10 -8 11 6 5 10 -3 15 -9 12 -12z
m-19 -37 c-1 -8 -5 -17 -8 -21 -5 -4 -4 16 1 34 3 9 9 -1 7 -13z m114 -36 c0
-6 -5 -7 -12 -3 -6 4 -17 -1 -25 -11 -7 -11 -13 -15 -13 -10 0 4 -9 0 -19 -9
-18 -17 -19 -17 -17 0 3 19 35 46 47 39 4 -3 10 -1 14 5 7 12 25 4 25 -11z
m-160 8 c0 -2 -10 -12 -22 -23 l-23 -19 19 23 c18 21 26 27 26 19z m50 -81 c0
-2 -8 -10 -17 -17 -16 -13 -17 -12 -4 4 13 16 21 21 21 13z m-39 -69 c-13 -13
-26 -3 -16 12 3 6 11 8 17 5 6 -4 6 -10 -1 -17z m-168 -12 c-7 -21 -12 -19
-10 4 0 11 5 18 9 15 4 -3 5 -11 1 -19z m-69 -101 c3 -8 2 -12 -4 -9 -6 3 -10
10 -10 16 0 14 7 11 14 -7z m-124 -99 c0 -7 -30 -13 -34 -7 -3 4 4 9 15 9 10
1 19 0 19 -2z m-140 -128 c0 -2 -10 -12 -22 -23 l-23 -19 19 23 c18 21 26 27
26 19z m120 -35 c0 -13 -12 -22 -22 -16 -10 6 -1 24 13 24 5 0 9 -4 9 -8z
m-50 -26 c0 -2 -8 -10 -17 -17 -16 -13 -17 -12 -4 4 13 16 21 21 21 13z m-115
-15 c-9 -8 -36 -10 -30 -2 2 4 11 8 20 8 8 0 13 -3 10 -6z m-57 -26 c-3 -3 -9
2 -12 12 -6 14 -5 15 5 6 7 -7 10 -15 7 -18z m105 -27 c-9 -10 -12 -18 -8 -18
5 0 1 -6 -10 -13 -10 -8 -15 -19 -11 -25 4 -7 3 -12 -3 -12 -15 0 -23 18 -11
25 6 4 8 10 6 14 -8 12 21 48 38 48 14 0 14 -2 -1 -19z m-84 -26 c13 -18 19
-32 14 -31 -22 4 -34 -2 -27 -13 4 -7 -5 -2 -19 11 -15 14 -27 29 -27 34 0 5
8 -1 18 -13 17 -21 19 -21 25 -6 4 9 3 14 -2 11 -5 -3 -13 0 -17 6 -5 8 -3 9
6 4 9 -6 10 -2 5 16 -9 27 -7 26 24 -19z m-64 -22 c3 -5 1 -10 -4 -10 -6 0
-11 5 -11 10 0 6 2 10 4 10 3 0 8 -4 11 -10z m-35 -40 c0 -5 -4 -10 -10 -10
-5 0 -10 5 -10 10 0 6 5 10 10 10 6 0 10 -4 10 -10z m100 -24 c0 -2 -7 -7 -16
-10 -8 -3 -12 -2 -9 4 6 10 25 14 25 6z m-46 -15 c3 -5 -2 -15 -12 -22 -15
-12 -16 -12 -5 2 7 9 10 19 6 22 -3 4 -4 7 0 7 3 0 8 -4 11 -9z m-139 -41 c3
-5 1 -10 -4 -10 -6 0 -11 5 -11 10 0 6 2 10 4 10 3 0 8 -4 11 -10z m66 -33
c-6 -8 -8 -16 -5 -19 2 -3 -2 -8 -11 -12 -11 -4 -14 -2 -9 7 11 20 26 37 31
37 3 0 0 -6 -6 -13z"/>
<path d="M17194 15609 c-29 -32 -29 -32 -2 -15 14 10 29 24 32 32 8 20 3 18
-30 -17z"/>
<path d="M19796 13855 c4 -8 8 -15 10 -15 2 0 4 7 4 15 0 8 -4 15 -10 15 -5 0
-7 -7 -4 -15z"/>
<path d="M19745 13662 c5 -5 -22 -33 -32 -33 -4 0 -17 -9 -29 -20 -11 -10 -24
-17 -27 -14 -4 3 -5 2 -2 -2 3 -3 -1 -13 -7 -22 -7 -9 -8 -13 -4 -9 5 4 16 2
24 -5 9 -6 13 -7 9 -1 -9 15 75 95 101 97 28 2 17 12 -13 12 -14 1 -22 -1 -20
-3z m-35 -45 c0 -2 -12 -14 -27 -28 l-28 -24 24 28 c23 25 31 32 31 24z"/>
<path d="M19610 13555 c-7 -8 -9 -15 -5 -15 5 0 1 -8 -8 -18 -10 -10 -14 -22
-10 -26 5 -4 -1 -6 -12 -4 -13 2 -20 -3 -20 -12 -1 -24 -15 -40 -30 -33 -8 3
-15 0 -15 -7 0 -6 -5 -8 -10 -5 -6 4 -9 3 -8 -2 4 -12 -49 -62 -58 -54 -4 3
-4 0 0 -7 9 -15 -22 -55 -35 -46 -8 5 -10 0 -9 -21 0 -3 -5 -12 -12 -19 -10
-10 -15 -11 -20 -2 -6 8 -8 8 -8 -1 0 -19 17 -24 30 -8 7 8 16 13 20 10 8 -5
45 40 50 60 7 29 13 35 25 25 15 -12 54 27 50 52 -2 11 2 15 11 11 8 -3 14 0
14 7 0 6 5 8 12 4 6 -4 8 -3 5 3 -6 10 20 41 36 42 4 1 8 4 9 9 0 4 8 12 16
18 10 8 12 13 4 18 -6 4 -9 13 -5 21 7 19 -1 19 -17 0z m7 -36 c-9 -6 -14 -15
-11 -21 4 -7 2 -8 -5 -4 -14 9 3 36 23 36 6 0 3 -5 -7 -11z m-100 -104 c0 -8
-9 -23 -20 -32 -11 -10 -17 -12 -13 -5 4 7 2 12 -5 12 -8 0 24 34 37 40 0 0 1
-7 1 -15z m-94 -99 c-10 -13 -21 -22 -26 -19 -4 2 3 13 15 23 30 26 32 25 11
-4z"/>
<path d="M19375 13249 c-4 -6 -5 -12 -2 -15 2 -3 7 2 10 11 7 17 1 20 -8 4z"/>
<path d="M17574 16032 c5 -8 -1 -12 -16 -13 -18 -1 -19 -2 -4 -6 23 -6 43 12
25 22 -8 5 -10 4 -5 -3z"/>
<path d="M17666 16018 c3 -5 10 -6 15 -3 13 9 11 12 -6 12 -8 0 -12 -4 -9 -9z"/>
<path d="M17694 15975 c3 -18 76 -82 76 -67 0 6 -8 13 -17 17 -17 6 -17 7 0
16 19 11 23 29 6 29 -5 0 -8 -4 -5 -9 3 -5 -6 -8 -21 -8 -26 0 -26 0 -7 15 16
12 16 14 2 9 -10 -4 -18 -2 -18 3 0 6 -4 10 -9 10 -5 0 -8 -7 -7 -15z"/>
<path d="M17775 15940 c-3 -5 -1 -10 4 -10 6 0 11 5 11 10 0 6 -2 10 -4 10 -3
0 -8 -4 -11 -10z"/>
<path d="M17444 15915 c-4 -8 -10 -13 -14 -10 -5 3 -12 0 -16 -6 -4 -7 -3 -9
4 -5 17 10 23 -10 7 -24 -8 -7 -15 -18 -15 -26 0 -7 -5 -16 -12 -20 -8 -5 -9
-1 -4 12 7 18 6 18 -11 2 -12 -13 -14 -21 -6 -29 7 -7 16 -3 30 15 11 14 23
22 27 18 4 -3 4 2 0 12 -5 13 -4 17 4 12 6 -3 13 -2 16 3 4 5 2 12 -3 16 -6 3
-8 12 -5 20 4 8 11 12 17 8 6 -3 7 -1 3 5 -10 16 -15 15 -22 -3z"/>
<path d="M17356 15858 c3 -5 10 -6 15 -3 13 9 11 12 -6 12 -8 0 -12 -4 -9 -9z"/>
<path d="M17333 15835 c0 -8 4 -12 9 -9 5 3 6 10 3 15 -9 13 -12 11 -12 -6z"/>
<path d="M17919 15833 c-13 -16 -12 -17 4 -4 9 7 17 15 17 17 0 8 -8 3 -21
-13z"/>
<path d="M17842 15832 c-8 -2 -2 -12 17 -26 17 -13 29 -25 26 -28 -10 -9 32
-38 47 -33 20 8 19 33 -1 30 -16 -2 -41 17 -41 32 0 13 -33 30 -48 25z m29
-19 c13 -16 12 -17 -3 -4 -17 13 -22 21 -14 21 2 0 10 -8 17 -17z m52 -46 c4
3 7 1 7 -5 0 -17 -16 -15 -31 6 -12 15 -12 16 2 5 9 -7 19 -10 22 -6z"/>
<path d="M17330 15800 c0 -5 9 -8 20 -7 21 1 18 10 -5 13 -8 1 -15 -2 -15 -6z"/>
<path d="M17910 15805 c0 -7 30 -13 34 -7 3 4 -4 9 -15 9 -10 1 -19 0 -19 -2z"/>
<path d="M17267 15759 c7 -9 10 -19 6 -22 -3 -4 -1 -7 5 -7 17 0 15 16 -5 31
-16 12 -17 12 -6 -2z"/>
<path d="M17245 15720 c-3 -5 -1 -10 4 -10 6 0 11 5 11 10 0 6 -2 10 -4 10 -3
0 -8 -4 -11 -10z"/>
<path d="M17155 15630 c-3 -5 -1 -10 4 -10 6 0 11 5 11 10 0 6 -2 10 -4 10 -3
0 -8 -4 -11 -10z"/>
<path d="M17076 15582 c-3 -5 1 -9 9 -9 8 0 12 4 9 9 -3 4 -7 8 -9 8 -2 0 -6
-4 -9 -8z"/>
<path d="M18135 15580 c3 -5 8 -10 11 -10 2 0 4 5 4 10 0 6 -5 10 -11 10 -5 0
-7 -4 -4 -10z"/>
<path d="M17058 15543 c-7 -17 -2 -53 7 -52 6 1 9 6 7 12 -2 7 -4 20 -5 29 -1
19 -4 22 -9 11z"/>
<path d="M17019 15513 c-13 -16 -12 -17 4 -4 9 7 17 15 17 17 0 8 -8 3 -21
-13z"/>
<path d="M18190 15510 c6 -11 13 -20 16 -20 2 0 0 9 -6 20 -6 11 -13 20 -16
20 -2 0 0 -9 6 -20z"/>
<path d="M17010 15480 c0 -5 9 -8 20 -7 21 1 18 10 -5 13 -8 1 -15 -2 -15 -6z"/>
<path d="M16950 15420 c0 -5 5 -10 10 -10 6 0 10 5 10 10 0 6 -4 10 -10 10 -5
0 -10 -4 -10 -10z"/>
<path d="M18295 15420 c3 -5 8 -10 11 -10 2 0 4 5 4 10 0 6 -5 10 -11 10 -5 0
-7 -4 -4 -10z"/>
<path d="M16943 15388 c1 -6 -4 -13 -12 -16 -8 -2 -11 0 -7 6 7 12 -20 10 -31
-3 -4 -4 -2 -5 5 -1 7 4 15 1 18 -9 6 -14 8 -14 26 2 11 10 22 17 24 16 2 -2
5 0 7 4 1 3 -6 7 -15 9 -10 1 -16 -3 -15 -8z"/>
<path d="M18332 15357 c-8 -9 -6 -19 8 -36 18 -25 50 -37 50 -20 0 5 -5 9 -11
9 -5 0 -8 4 -4 9 3 6 -4 15 -15 21 -11 6 -18 15 -15 21 9 13 -1 11 -13 -4z
m35 -43 c0 -19 -2 -18 -21 11 -16 25 -16 25 2 14 10 -6 19 -18 19 -25z"/>
<path d="M16886 15341 c-3 -5 1 -11 9 -15 15 -6 29 7 18 18 -9 9 -21 8 -27 -3z"/>
<path d="M18462 15218 c-14 -14 -16 -32 -3 -23 5 3 22 -10 36 -30 15 -19 31
-33 35 -30 5 3 11 1 15 -5 3 -5 11 -10 17 -10 6 0 2 8 -9 18 -11 9 -18 24 -15
32 3 9 -2 7 -13 -5 -13 -16 -16 -17 -11 -3 3 10 1 20 -5 23 -5 4 -7 10 -4 15
3 5 -4 7 -15 5 -22 -4 -28 10 -7 18 6 3 7 6 2 6 -6 1 -16 -4 -23 -11z m39 -35
c13 -16 12 -17 -3 -4 -17 13 -22 21 -14 21 2 0 10 -8 17 -17z"/>
<path d="M18634 15092 c3 -5 0 -13 -6 -15 -8 -3 -6 -6 5 -6 19 -1 23 14 5 25
-6 4 -8 3 -4 -4z"/>
<path d="M18645 15050 c-4 -6 -2 -17 4 -24 6 -7 8 -15 5 -18 -3 -3 8 -15 24
-27 28 -19 31 -20 43 -4 8 10 9 14 2 10 -6 -4 -14 -3 -18 2 -3 6 -13 8 -23 5
-14 -5 -13 -2 3 11 12 11 14 16 5 13 -8 -3 -20 1 -27 8 -16 16 -17 28 -1 18 7
-4 8 -3 4 4 -9 15 -13 15 -21 2z"/>
<path d="M18775 14940 c3 -5 8 -10 11 -10 2 0 4 5 4 10 0 6 -5 10 -11 10 -5 0
-7 -4 -4 -10z"/>
<path d="M18837 14863 c-13 -12 -7 -41 9 -47 8 -3 12 -11 8 -17 -4 -7 -3 -9 4
-5 6 3 13 2 17 -3 8 -13 32 -4 32 13 0 7 -6 13 -13 13 -7 0 -10 -7 -6 -16 3
-10 -5 -6 -21 9 -29 27 -34 46 -14 53 6 3 7 6 1 6 -6 1 -14 -2 -17 -6z"/>
<path d="M18875 14851 c6 -11 4 -13 -9 -8 -10 4 -15 3 -11 -3 7 -12 41 -8 52
6 5 5 4 6 -1 2 -5 -4 -16 -2 -24 5 -13 10 -14 9 -7 -2z"/>
<path d="M19095 14620 c3 -5 8 -10 11 -10 2 0 4 5 4 10 0 6 -5 10 -11 10 -5 0
-7 -4 -4 -10z"/>
<path d="M19128 14547 c7 -8 9 -16 6 -19 -3 -3 8 -15 24 -27 28 -19 31 -20 43
-4 8 10 9 14 2 10 -6 -4 -14 -3 -18 2 -3 6 -13 8 -23 5 -14 -5 -13 -2 3 12 17
14 17 16 3 11 -10 -4 -18 -2 -18 2 0 5 -7 12 -16 15 -13 5 -14 4 -6 -7z"/>
<path d="M19255 14460 c3 -5 8 -10 11 -10 2 0 4 5 4 10 0 6 -5 10 -11 10 -5 0
-7 -4 -4 -10z"/>
<path d="M19476 14262 c-2 -4 -1 -14 4 -22 7 -11 9 -9 7 8 -1 24 -3 26 -11 14z"/>
<path d="M19515 14251 c-3 -5 -2 -12 3 -15 5 -3 9 1 9 9 0 17 -3 19 -12 6z"/>
<path d="M19575 14140 c3 -5 8 -10 11 -10 2 0 4 5 4 10 0 6 -5 10 -11 10 -5 0
-7 -4 -4 -10z"/>
<path d="M19796 13942 c-2 -4 -1 -14 4 -22 7 -11 9 -9 7 8 -1 24 -3 26 -11 14z"/>
<path d="M19829 13923 c-13 -16 -12 -17 4 -4 9 7 17 15 17 17 0 8 -8 3 -21
-13z"/>
<path d="M19876 13807 c3 -10 9 -15 12 -12 3 3 0 11 -7 18 -10 9 -11 8 -5 -6z"/>
<path d="M19915 13809 c-4 -6 -5 -12 -2 -15 2 -3 7 2 10 11 7 17 1 20 -8 4z"/>
<path d="M19900 13760 c-9 -6 -10 -10 -3 -10 6 0 15 5 18 10 8 12 4 12 -15 0z"/>
<path d="M19870 13745 c0 -5 5 -17 10 -25 5 -8 10 -10 10 -5 0 6 -5 17 -10 25
-5 8 -10 11 -10 5z"/>
<path d="M19775 13600 c3 -5 8 -10 11 -10 2 0 4 5 4 10 0 6 -5 10 -11 10 -5 0
-7 -4 -4 -10z"/>
<path d="M19766 13561 c-14 -15 -15 -21 -4 -27 7 -4 10 -3 5 1 -4 5 0 17 10
27 9 10 14 18 11 18 -3 0 -13 -9 -22 -19z"/>
<path d="M19807 13559 c7 -7 15 -10 18 -7 3 3 -2 9 -12 12 -14 6 -15 5 -6 -5z"/>
<path d="M19725 13520 c-3 -6 1 -7 9 -4 18 7 21 14 7 14 -6 0 -13 -4 -16 -10z"/>
<path d="M19676 13507 c3 -10 9 -15 12 -12 3 3 0 11 -7 18 -10 9 -11 8 -5 -6z"/>
<path d="M19610 13436 c0 -8 4 -18 10 -21 6 -4 7 1 3 12 -6 16 -5 17 13 3 18
-14 18 -14 5 3 -16 21 -31 22 -31 3z"/>
<path d="M19666 13438 c3 -5 10 -6 15 -3 13 9 11 12 -6 12 -8 0 -12 -4 -9 -9z"/>
<path d="M19496 13301 c-4 -5 3 -7 14 -4 23 6 26 13 6 13 -8 0 -17 -4 -20 -9z"/>
<path d="M19430 13260 c0 -5 5 -10 10 -10 6 0 10 5 10 10 0 6 -4 10 -10 10 -5
0 -10 -4 -10 -10z"/>
<path d="M19235 13180 c-3 -5 -1 -10 4 -10 6 0 11 5 11 10 0 6 -2 10 -4 10 -3
0 -8 -4 -11 -10z"/>
<path d="M19364 13164 c-18 -14 -18 -15 4 -4 12 6 22 13 22 15 0 8 -5 6 -26
-11z"/>
<path d="M19400 13166 c0 -2 8 -10 18 -17 15 -13 16 -12 3 4 -13 16 -21 21
-21 13z"/>
<path d="M19268 13093 c7 -3 16 -2 19 1 4 3 -2 6 -13 5 -11 0 -14 -3 -6 -6z"/>
<path d="M19147 13076 c-4 -10 -1 -13 8 -9 8 3 12 9 9 14 -7 12 -11 11 -17 -5z"/>
<path d="M19255 13059 c-3 -4 2 -6 10 -5 21 3 28 13 10 13 -9 0 -18 -4 -20 -8z"/>
<path d="M19115 13051 c3 -6 -3 -15 -12 -21 -16 -11 -16 -11 2 -6 20 6 20 6 1
-9 -14 -11 -16 -15 -5 -15 10 -1 9 -3 -4 -11 -9 -5 -21 -8 -25 -5 -14 8 -44
-22 -36 -36 6 -9 3 -9 -10 1 -15 12 -17 12 -14 0 2 -8 -4 -13 -15 -12 -15 1
-17 -4 -12 -25 4 -15 3 -24 -1 -20 -4 4 -13 3 -21 -3 -7 -6 -13 -8 -13 -4 0 4
-7 2 -15 -5 -8 -7 -12 -16 -9 -21 3 -5 0 -9 -6 -9 -6 0 -8 -5 -5 -10 5 -8 11
-8 19 -1 9 7 16 7 24 -1 16 -16 15 -33 -1 -20 -14 12 -35 11 -54 -1 -8 -5 -13
-3 -13 5 -1 18 -33 -42 -35 -64 -2 -22 -15 -37 -15 -18 0 9 -5 7 -15 -6 -15
-19 -15 -19 -9 1 5 18 5 18 -6 2 -6 -9 -15 -15 -21 -12 -5 4 -9 4 -9 1 0 -10
62 -35 76 -29 10 4 13 0 8 -13 -3 -11 -2 -15 3 -8 4 6 15 14 23 17 13 4 12 6
-1 6 -9 1 -22 8 -30 17 -11 14 -10 15 7 12 10 -1 22 -7 26 -13 4 -5 5 7 3 29
-4 33 -3 37 9 27 8 -7 12 -20 9 -29 -4 -14 -3 -15 5 -2 7 9 8 18 1 26 -7 8 -6
14 1 19 5 3 10 0 10 -7 1 -7 7 -2 14 11 8 15 16 20 20 12 4 -6 13 -11 19 -11
7 0 6 4 -3 10 -14 9 -7 14 13 11 4 -1 10 6 13 14 3 8 11 12 18 8 6 -3 6 -1 -1
8 -17 17 -17 34 0 21 9 -8 17 -8 27 0 13 8 12 9 -2 5 -9 -3 -22 1 -30 10 -11
14 -10 15 12 9 18 -5 16 -1 -10 13 -36 21 -35 29 2 10 26 -14 41 6 26 34 -10
19 -10 19 15 1 22 -17 28 -52 6 -38 -5 3 -9 0 -9 -5 0 -16 20 -13 26 4 4 8 11
12 18 8 7 -4 6 -1 -2 9 -13 16 -6 52 9 43 4 -3 6 -11 3 -19 -3 -7 2 -13 11
-13 13 0 14 3 0 23 -21 32 -18 44 3 18 16 -19 19 -19 32 -6 13 14 12 15 -4 9
-13 -5 -17 -3 -13 7 6 14 -19 76 -29 76 -3 0 -3 -4 1 -9z m22 -57 c-9 -9 -28
6 -21 18 4 6 10 6 17 -1 6 -6 8 -13 4 -17z m-48 -37 c-8 -14 -13 -16 -25 -7
-17 15 -12 26 14 26 17 0 19 -4 11 -19z m-46 -40 c-5 -8 -8 -7 -11 1 -2 7 -9
9 -14 6 -7 -4 -8 -2 -4 4 4 6 13 9 21 6 8 -4 12 -11 8 -17z m-38 -34 c-1 -10
-9 -17 -16 -15 -9 1 -8 -2 3 -11 10 -8 14 -18 8 -27 -6 -10 -14 -7 -33 12 -14
14 -29 23 -33 19 -4 -3 -4 0 0 7 4 7 11 10 16 7 5 -3 11 -1 15 5 4 6 10 8 15
5 5 -3 11 -1 15 5 9 15 14 12 10 -7z m-61 -78 c-3 -8 -9 -14 -12 -13 -4 0 -10
-1 -14 -2 -14 -4 -28 -7 -39 -9 -8 -1 -8 -6 1 -16 9 -11 9 -15 1 -15 -7 0 -9
-5 -5 -12 4 -7 3 -10 -1 -5 -14 12 -13 48 2 54 7 3 10 10 6 17 -3 6 -3 8 1 5
6 -5 37 0 63 10 1 1 0 -6 -3 -14z m-97 -101 c-9 -9 -28 6 -21 18 4 6 10 6 17
-1 6 -6 8 -13 4 -17z"/>
<path d="M18964 12869 c-3 -6 -2 -15 3 -20 5 -5 9 -1 9 11 0 23 -2 24 -12 9z"/>
<path d="M19086 12862 c-3 -5 1 -9 9 -9 8 0 12 4 9 9 -3 4 -7 8 -9 8 -2 0 -6
-4 -9 -8z"/>
<path d="M19039 12813 c-12 -16 -12 -17 2 -6 9 7 20 9 24 5 5 -4 5 -1 1 6 -9
16 -11 15 -27 -5z"/>
<path d="M18950 12770 c0 -5 5 -10 10 -10 6 0 10 5 10 10 0 6 -4 10 -10 10 -5
0 -10 -4 -10 -10z"/>
<path d="M18933 12735 c-3 -9 -3 -18 -1 -21 3 -3 8 4 11 16 6 23 -1 27 -10 5z"/>
<path d="M18761 12691 c-8 -5 -9 -11 -3 -15 5 -3 12 1 16 9 6 17 6 18 -13 6z"/>
<path d="M18655 12600 c-3 -5 -1 -10 4 -10 6 0 11 5 11 10 0 6 -2 10 -4 10 -3
0 -8 -4 -11 -10z"/>
<path d="M18779 12588 c-5 -18 -6 -38 -1 -34 7 8 12 36 6 36 -2 0 -4 -1 -5 -2z"/>
<path d="M18741 12564 c0 -11 3 -14 6 -6 3 7 2 16 -1 19 -3 4 -6 -2 -5 -13z"/>
<path d="M18670 12470 c-6 -11 -8 -20 -6 -20 3 0 10 9 16 20 6 11 8 20 6 20
-3 0 -10 -9 -16 -20z"/>
<path d="M18534 12472 c3 -6 -2 -15 -11 -21 -10 -6 -13 -11 -7 -11 20 0 37 27
23 36 -7 4 -9 3 -5 -4z"/>
<path d="M18670 12436 c0 -2 8 -10 18 -17 15 -13 16 -12 3 4 -13 16 -21 21
-21 13z"/>
<path d="M18570 12400 c0 -5 5 -10 10 -10 6 0 10 5 10 10 0 6 -4 10 -10 10 -5
0 -10 -4 -10 -10z"/>
<path d="M18535 12340 c-3 -6 1 -7 9 -4 18 7 21 14 7 14 -6 0 -13 -4 -16 -10z"/>
<path d="M18375 12291 c-3 -5 -2 -12 3 -15 5 -3 9 1 9 9 0 17 -3 19 -12 6z"/>
<path d="M18430 12260 c0 -5 7 -7 15 -4 8 4 15 8 15 10 0 2 -7 4 -15 4 -8 0
-15 -4 -15 -10z"/>
<path d="M18445 12240 c-3 -6 1 -7 9 -4 18 7 21 14 7 14 -6 0 -13 -4 -16 -10z"/>
<path d="M18274 12216 c-15 -12 -17 -17 -6 -27 6 -7 13 -10 13 -6 1 4 2 10 3
15 1 4 5 13 9 20 11 16 5 15 -19 -2z"/>
<path d="M18416 12221 c-3 -5 1 -14 8 -20 10 -9 16 -9 21 -1 4 6 1 9 -7 8 -7
-2 -12 3 -10 10 2 14 -4 16 -12 3z"/>
<path d="M18393 12195 c0 -8 4 -12 9 -9 5 3 6 10 3 15 -9 13 -12 11 -12 -6z"/>
<path d="M18395 12160 c3 -5 8 -10 11 -10 2 0 4 5 4 10 0 6 -5 10 -11 10 -5 0
-7 -4 -4 -10z"/>
</g>
</svg>
